# xmcd
#
# Track frame offsets: 
#        150
#        19039
#        38120
#        57582
#        77224
#        91110
#        112600
#        127579
#        143907
#        160023
#        179042
#
# Disc length: 2645 seconds
#
# Revision: 0
# Processed by: cddbd v1.5.2PL0 Copyright (c) Steve Scherf et al.
# Submitted via: ExactAudioCopyFreeDBPlugin 1.0
#
DISCID=810a530b
DTITLE=Dave Keller - Soul Changes
DYEAR=2014
DGENRE=Blues
TTITLE0=Searchin' for a Sign
TTITLE1=17 Years
TTITLE2=Old Man's Lullabye
TTITLE3=I Wish We'd Kissed
TTITLE4=Lonely and I
TTITLE5=One More Time
TTITLE6=It's Too Strong
TTITLE7=Back In Love Again
TTITLE8=Don't Look Back
TTITLE9=Heart On a String
TTITLE10=Is It Over
EXTD=
EXTT0=
EXTT1=
EXTT2=
EXTT3=
EXTT4=
EXTT5=
EXTT6=
EXTT7=
EXTT8=
EXTT9=
EXTT10=
PLAYORDER=
